<svg id="Layer_1" data-name="Layer 1" xmlns="http://www.w3.org/2000/svg" viewBox="0 0 450 65"><defs><style>.cls-1{fill:#fff;}</style></defs><path id="Logo" class="cls-1" d="M41.08,18.33a.15.15,0,0,0-.06.11.14.14,0,0,0,0,.09C47.4,26.06,59.65,44,57.26,51.44c0,.06,0,.13,0,.16a.14.14,0,0,0,.17-.05A31.45,31.45,0,0,0,54.6,10.18a.61.61,0,0,0-.14-.1c-.53-.28-3.79-1.29-13.38,8.25M10.43,10.08a.61.61,0,0,0-.14.1A31.45,31.45,0,0,0,7.43,51.55a.14.14,0,0,0,.17.05c.05,0,.05-.1,0-.16C5.24,44,17.49,26.06,23.82,18.53c0,0,.05-.06.05-.09a.15.15,0,0,0-.06-.11C14.22,8.79,11,9.8,10.43,10.08m38.4-4.43a31.48,31.48,0,0,0-32.77,0,.13.13,0,0,0,0,.16.11.11,0,0,0,.15.05c6.09-1.31,15.34,4,16.22,4.48l.06,0,.07,0c.88-.53,10.13-5.79,16.22-4.48a.11.11,0,0,0,.15-.05.14.14,0,0,0-.05-.16M32.44,26.27a.17.17,0,0,1,.11.06c9.4,7.15,25.5,24.84,20.59,29.84a31.41,31.41,0,0,1-41.39,0c-4.91-5,11.19-22.69,20.59-29.84a.18.18,0,0,1,.1-.06M358.91,37l6.53-17.3L372,37Zm9.8-23h-6.53l-14.76,37.8h6l3.66-9.79h16.75l3.65,9.79h6ZM449,41.36a10,10,0,0,1-3.91,8.3c-2.59,2-6.23,3-10.81,3-5,0-8.88-1.15-11.65-3.4s-4.19-5.61-4.23-9.94v-.06h5.77v.05c.06,2.8.94,4.92,2.63,6.31s4.25,2.11,7.59,2.11a10.88,10.88,0,0,0,6.4-1.61A5.33,5.33,0,0,0,443,41.52a4.44,4.44,0,0,0-1.82-3.8c-1.23-.89-3.47-1.69-6.65-2.4l-3.23-.68c-3.88-.78-6.84-2.06-8.82-3.83a9.41,9.41,0,0,1-3-7.34A9,9,0,0,1,423.13,16c2.4-1.85,5.69-2.79,9.78-2.79,4.93,0,8.69,1.08,11.17,3.19a11.26,11.26,0,0,1,3.86,8.78v.05h-5.72v-.05a7.15,7.15,0,0,0-2.39-5.33c-1.41-1.13-3.72-1.71-6.87-1.71a9.75,9.75,0,0,0-5.63,1.37,4.45,4.45,0,0,0-1.94,3.87,4.55,4.55,0,0,0,1.73,3.87c1.15.95,3.32,1.76,6.43,2.43l3.29.69c4.29.91,7.42,2.25,9.31,4a9.11,9.11,0,0,1,2.85,7m-33.62,0a10,10,0,0,1-3.91,8.3c-2.6,2-6.23,3-10.81,3-5,0-8.89-1.15-11.65-3.4s-4.2-5.61-4.23-9.94v-.06h5.77v.05c.06,2.8.94,4.92,2.63,6.31s4.24,2.11,7.59,2.11a10.9,10.9,0,0,0,6.4-1.61,5.36,5.36,0,0,0,2.22-4.63,4.43,4.43,0,0,0-1.83-3.8c-1.22-.89-3.46-1.69-6.65-2.4l-3.23-.68c-3.87-.78-6.83-2.06-8.81-3.83a9.38,9.38,0,0,1-3-7.34A9,9,0,0,1,389.51,16c2.4-1.85,5.69-2.79,9.77-2.79,4.94,0,8.69,1.08,11.18,3.19a11.26,11.26,0,0,1,3.86,8.78v.05H408.6v-.05a7.19,7.19,0,0,0-2.39-5.33c-1.41-1.13-3.73-1.71-6.87-1.71a9.78,9.78,0,0,0-5.64,1.37,4.46,4.46,0,0,0-1.93,3.87,4.57,4.57,0,0,0,1.72,3.87c1.16.95,3.32,1.76,6.44,2.43l3.28.69c4.3.91,7.43,2.25,9.32,4a9.11,9.11,0,0,1,2.85,7M328.15,19.13h10.21a7.46,7.46,0,0,1,5.37,1.78,6.86,6.86,0,0,1,1.83,5.1,6.73,6.73,0,0,1-1.83,5.06,7.5,7.5,0,0,1-5.37,1.76H328.15ZM348,17.26c-2.26-2.14-5.48-3.22-9.57-3.22H322.38v37.8h5.77V37.92h10.32c4.09,0,7.31-1.08,9.57-3.22a11.42,11.42,0,0,0,3.4-8.69,11.5,11.5,0,0,0-3.4-8.75M275.18,14v37.8h-5.56v-30c-.72,2.1-1.67,4.71-2.86,7.78l-8.53,22.21h-4.84l0,0-8.62-22.18c-1-2.74-2-5.32-2.81-7.68V51.84h-5.56V14h7.93l7.74,20.1c1.55,4.07,2.83,7.59,3.81,10.48,1.15-3.43,2.45-7.13,3.86-11L267.2,14Zm11.55,5.19v11h18.78V35H286.73V46.65H308v5.19H281V14h27v5.19Zm-92.45,12.7V51.84h-5.43v-5a13.6,13.6,0,0,1-5.13,4.32,16.38,16.38,0,0,1-7.12,1.48,18.83,18.83,0,0,1-7.34-1.37,15.72,15.72,0,0,1-5.67-4.1,18,18,0,0,1-3.7-6.28,24.47,24.47,0,0,1-1.23-8,24.71,24.71,0,0,1,1.24-8.06,17.63,17.63,0,0,1,3.75-6.27,15.83,15.83,0,0,1,5.78-4.06,19.76,19.76,0,0,1,7.49-1.36,18.07,18.07,0,0,1,11.52,3.62,14.92,14.92,0,0,1,5.42,9.72v.06h-5.93v0a9.71,9.71,0,0,0-3.76-6,11.79,11.79,0,0,0-7.2-2.22,11.13,11.13,0,0,0-8.95,4c-2.24,2.59-3.38,6.18-3.38,10.66S165.78,41,168,43.6a11.45,11.45,0,0,0,9.06,3.95,11.92,11.92,0,0,0,8.27-3.06,10.34,10.34,0,0,0,3.53-7.63H177.76V31.93ZM208.8,37l6.53-17.3L221.87,37Zm9.8-23h-6.54l-14.75,37.8h6L207,42.05h16.76l3.65,9.79h6ZM86.84,19.13H97.06a7.44,7.44,0,0,1,5.36,1.78,6.82,6.82,0,0,1,1.83,5.1,6.69,6.69,0,0,1-1.83,5.06,7.48,7.48,0,0,1-5.36,1.76H86.84Zm19.89-1.87c-2.26-2.14-5.48-3.22-9.57-3.22H81.07v37.8h5.77V37.92H97.16c4.09,0,7.31-1.08,9.57-3.22a11.44,11.44,0,0,0,3.4-8.69,11.5,11.5,0,0,0-3.4-8.75M142,37.81v0a10.62,10.62,0,0,1-3.74,7.21A11.61,11.61,0,0,1,131,47.55a10.64,10.64,0,0,1-8.64-3.92c-2.13-2.61-3.22-6.21-3.22-10.69s1.09-8.08,3.22-10.68A10.62,10.62,0,0,1,131,18.33a11.3,11.3,0,0,1,6.87,2.08,10.65,10.65,0,0,1,3.87,6.19l0,0h5.82v-.06c-.85-4.41-2.79-7.79-5.79-10A17.68,17.68,0,0,0,131,13.19a18.71,18.71,0,0,0-7.21,1.34,16.19,16.19,0,0,0-5.7,4,17.76,17.76,0,0,0-3.7,6.28,24.92,24.92,0,0,0-1.23,8.1,25,25,0,0,0,1.24,8.13,17.29,17.29,0,0,0,3.75,6.25,16.2,16.2,0,0,0,5.68,4A18.51,18.51,0,0,0,131,52.69a17.36,17.36,0,0,0,11.31-3.88c3.17-2.57,5-6.25,5.47-10.94v-.06Z"/></svg>